<svg xmlns="http://www.w3.org/2000/svg" viewBox="0 0 100 100" preserveAspectRatio="xMidYMid" width="72" height="72" style="shape-rendering: auto; display: block; background: transparent;" xmlns:xlink="http://www.w3.org/1999/xlink"><g><g transform="rotate(0 50 50)">
  <rect x="47" y="24" rx="3" ry="6" width="6" height="12" fill="#8fb2f5">
    <animate attributeName="opacity" values="1;0" keyTimes="0;1" dur="0.7518796992481203s" begin="-0.6892230576441103s" repeatCount="indefinite"></animate>
  </rect>
</g><g transform="rotate(30 50 50)">
  <rect x="47" y="24" rx="3" ry="6" width="6" height="12" fill="#8fb2f5">
    <animate attributeName="opacity" values="1;0" keyTimes="0;1" dur="0.7518796992481203s" begin="-0.6265664160401002s" repeatCount="indefinite"></animate>
  </rect>
</g><g transform="rotate(60 50 50)">
  <rect x="47" y="24" rx="3" ry="6" width="6" height="12" fill="#8fb2f5">
    <animate attributeName="opacity" values="1;0" keyTimes="0;1" dur="0.7518796992481203s" begin="-0.5639097744360902s" repeatCount="indefinite"></animate>
  </rect>
</g><g transform="rotate(90 50 50)">
  <rect x="47" y="24" rx="3" ry="6" width="6" height="12" fill="#8fb2f5">
    <animate attributeName="opacity" values="1;0" keyTimes="0;1" dur="0.7518796992481203s" begin="-0.5012531328320802s" repeatCount="indefinite"></animate>
  </rect>
</g><g transform="rotate(120 50 50)">
  <rect x="47" y="24" rx="3" ry="6" width="6" height="12" fill="#8fb2f5">
    <animate attributeName="opacity" values="1;0" keyTimes="0;1" dur="0.7518796992481203s" begin="-0.43859649122807015s" repeatCount="indefinite"></animate>
  </rect>
</g><g transform="rotate(150 50 50)">
  <rect x="47" y="24" rx="3" ry="6" width="6" height="12" fill="#8fb2f5">
    <animate attributeName="opacity" values="1;0" keyTimes="0;1" dur="0.7518796992481203s" begin="-0.37593984962406013s" repeatCount="indefinite"></animate>
  </rect>
</g><g transform="rotate(180 50 50)">
  <rect x="47" y="24" rx="3" ry="6" width="6" height="12" fill="#8fb2f5">
    <animate attributeName="opacity" values="1;0" keyTimes="0;1" dur="0.7518796992481203s" begin="-0.3132832080200501s" repeatCount="indefinite"></animate>
  </rect>
</g><g transform="rotate(210 50 50)">
  <rect x="47" y="24" rx="3" ry="6" width="6" height="12" fill="#8fb2f5">
    <animate attributeName="opacity" values="1;0" keyTimes="0;1" dur="0.7518796992481203s" begin="-0.2506265664160401s" repeatCount="indefinite"></animate>
  </rect>
</g><g transform="rotate(240 50 50)">
  <rect x="47" y="24" rx="3" ry="6" width="6" height="12" fill="#8fb2f5">
    <animate attributeName="opacity" values="1;0" keyTimes="0;1" dur="0.7518796992481203s" begin="-0.18796992481203006s" repeatCount="indefinite"></animate>
  </rect>
</g><g transform="rotate(270 50 50)">
  <rect x="47" y="24" rx="3" ry="6" width="6" height="12" fill="#8fb2f5">
    <animate attributeName="opacity" values="1;0" keyTimes="0;1" dur="0.7518796992481203s" begin="-0.12531328320802004s" repeatCount="indefinite"></animate>
  </rect>
</g><g transform="rotate(300 50 50)">
  <rect x="47" y="24" rx="3" ry="6" width="6" height="12" fill="#8fb2f5">
    <animate attributeName="opacity" values="1;0" keyTimes="0;1" dur="0.7518796992481203s" begin="-0.06265664160401002s" repeatCount="indefinite"></animate>
  </rect>
</g><g transform="rotate(330 50 50)">
  <rect x="47" y="24" rx="3" ry="6" width="6" height="12" fill="#8fb2f5">
    <animate attributeName="opacity" values="1;0" keyTimes="0;1" dur="0.7518796992481203s" begin="0s" repeatCount="indefinite"></animate>
  </rect>
</g><g></g></g><!-- [ldio] generated by https://loading.io --></svg>